<?xml version="1.0" encoding="UTF-8" standalone="no"?>
<!-- Created with Inkscape (http://www.inkscape.org/) -->

<svg
   width="32"
   height="32"
   viewBox="0 0 8.4666664 8.4666662"
   version="1.1"
   id="svg1"
   inkscape:version="1.4.3 (fcd0343856, 2026-01-01)"
   sodipodi:docname="logo.svg"
   inkscape:export-filename="logo.png"
   inkscape:export-xdpi="96"
   inkscape:export-ydpi="96"
   xmlns:inkscape="http://www.inkscape.org/namespaces/inkscape"
   xmlns:sodipodi="http://sodipodi.sourceforge.net/DTD/sodipodi-0.dtd"
   xmlns="http://www.w3.org/2000/svg"
   xmlns:svg="http://www.w3.org/2000/svg">
  <sodipodi:namedview
     id="namedview1"
     pagecolor="#505050"
     bordercolor="#eeeeee"
     borderopacity="1"
     inkscape:showpageshadow="0"
     inkscape:pageopacity="0"
     inkscape:pagecheckerboard="0"
     inkscape:deskcolor="#505050"
     inkscape:document-units="px"
     inkscape:zoom="8"
     inkscape:cx="19.3125"
     inkscape:cy="-1.8125"
     inkscape:window-width="1874"
     inkscape:window-height="1019"
     inkscape:window-x="0"
     inkscape:window-y="0"
     inkscape:window-maximized="1"
     inkscape:current-layer="layer1" />
  <defs
     id="defs1" />
  <g
     inkscape:label="Layer 1"
     inkscape:groupmode="layer"
     id="layer1"
     transform="translate(-160.6632,-63.098865)">
    <g
       id="g60"
       transform="matrix(1.8322873,0,0,1.8322873,-131.44178,-51.918995)"
       style="stroke-width:0.529167;stroke-dasharray:none;stroke:#999999">
      <g
         id="g39"
         transform="matrix(0.53710008,0,0,0.53710008,73.988178,28.845766)"
         style="stroke-width:0.985229;stroke-dasharray:none;stroke:#999999">
        <path
           style="baseline-shift:baseline;display:inline;overflow:visible;vector-effect:none;fill:#999999;stroke:none;stroke-linecap:round;enable-background:accumulate;stop-color:#000000;stop-opacity:1;opacity:1"
           d="m 160.51367,63.861328 a 0.49261451,0.49261451 0 0 0 -0.51172,0.472656 0.49261451,0.49261451 0 0 0 0.47071,0.511719 c 0.42322,0.0176 0.78953,0.14202 1.01757,0.296875 0.22805,0.154855 0.29778,0.302114 0.29688,0.419922 -9e-4,0.117808 -0.075,0.267633 -0.30664,0.421875 -0.2316,0.154242 -0.59988,0.276014 -1.02344,0.291016 a 0.49261451,0.49261451 0 0 0 -0.47461,0.509765 0.49261451,0.49261451 0 0 0 0.50977,0.47461 c 0.58553,-0.02074 1.11787,-0.177177 1.53515,-0.455079 0.41729,-0.277901 0.74014,-0.712621 0.74414,-1.234375 0.004,-0.521753 -0.31433,-0.960933 -0.72851,-1.242187 -0.41418,-0.281254 -0.94402,-0.442458 -1.5293,-0.466797 z"
           id="path14" />
        <path
           style="baseline-shift:baseline;display:inline;overflow:visible;vector-effect:none;fill:#999999;stroke:none;stroke-linecap:round;enable-background:accumulate;stop-color:#000000;stop-opacity:1;opacity:1"
           d="m 160.4668,66.275391 a 0.49261451,0.49261451 0 0 0 -0.48633,0.5 0.49261451,0.49261451 0 0 0 0.5,0.486328 c 0.57861,-0.0083 1.10799,0.206567 1.32226,0.435547 0.10714,0.11449 0.1322,0.201896 0.13282,0.277343 6.2e-4,0.07545 -0.0227,0.163254 -0.12696,0.277344 -0.20849,0.22818 -0.73375,0.447886 -1.3125,0.443359 A 0.49261451,0.49261451 0 0 0 160,69.183594 a 0.49261451,0.49261451 0 0 0 0.49023,0.496093 c 0.80306,0.0063 1.56168,-0.234807 2.04493,-0.763671 0.24162,-0.264433 0.38956,-0.602393 0.38671,-0.949219 -0.003,-0.346826 -0.15546,-0.679668 -0.40039,-0.941406 -0.48985,-0.523476 -1.25173,-0.761561 -2.05468,-0.75 z"
           id="path15" />
        <path
           style="baseline-shift:baseline;display:inline;overflow:visible;vector-effect:none;fill:#999999;stroke:none;stroke-linecap:round;enable-background:accumulate;stop-color:#000000;stop-opacity:1;opacity:1"
           d="m 160.16797,68.839844 a 0.49261451,0.49261451 0 0 0 0,0.695312 l 2.08984,2.091797 a 0.49261451,0.49261451 0 0 0 0.69727,0 0.49261451,0.49261451 0 0 0 0,-0.697266 l -2.08985,-2.089843 a 0.49261451,0.49261451 0 0 0 -0.69726,0 z"
           id="path16" />
        <path
           style="baseline-shift:baseline;display:inline;overflow:visible;vector-effect:none;fill:#999999;stroke:none;stroke-linecap:round;enable-background:accumulate;stop-color:#000000;stop-opacity:1;opacity:1"
           d="M 160.49414,63.167969 A 0.49261451,0.49261451 0 0 0 160,63.660156 v 0.69336 a 0.49261451,0.49261451 0 0 0 0.49414,0.492187 0.49261451,0.49261451 0 0 0 0.49219,-0.492187 v -0.69336 a 0.49261451,0.49261451 0 0 0 -0.49219,-0.492187 z"
           id="path17" />
        <path
           style="baseline-shift:baseline;display:inline;overflow:visible;vector-effect:none;fill:#999999;stroke:none;stroke-linecap:round;enable-background:accumulate;stop-color:#000000;stop-opacity:1;opacity:1"
           d="M 160.49414,68.689453 A 0.49261451,0.49261451 0 0 0 160,69.181641 V 69.875 a 0.49261451,0.49261451 0 0 0 0.49414,0.492187 0.49261451,0.49261451 0 0 0 0.49219,-0.492187 v -0.693359 a 0.49261451,0.49261451 0 0 0 -0.49219,-0.492188 z"
           id="path18" />
        <path
           style="baseline-shift:baseline;display:inline;overflow:visible;vector-effect:none;fill:#999999;stroke:none;stroke-linecap:round;enable-background:accumulate;stop-color:#000000;stop-opacity:1;opacity:1"
           d="M 160.49414,68.001953 A 0.49261451,0.49261451 0 0 0 160,68.494141 V 69.1875 a 0.49261451,0.49261451 0 0 0 0.49414,0.492187 0.49261451,0.49261451 0 0 0 0.49219,-0.492187 v -0.693359 a 0.49261451,0.49261451 0 0 0 -0.49219,-0.492188 z"
           id="path19" />
        <path
           style="baseline-shift:baseline;display:inline;overflow:visible;vector-effect:none;fill:#999999;stroke:none;stroke-linecap:round;enable-background:accumulate;stop-color:#000000;stop-opacity:1;opacity:1"
           d="M 160.49414,69.382812 A 0.49261451,0.49261451 0 0 0 160,69.875 v 0.693359 a 0.49261451,0.49261451 0 0 0 0.49414,0.494141 0.49261451,0.49261451 0 0 0 0.49219,-0.494141 V 69.875 a 0.49261451,0.49261451 0 0 0 -0.49219,-0.492188 z"
           id="path21" />
      </g>
      <g
         id="g38"
         transform="matrix(0.64899033,0,0,1.3903517,55.943724,-30.596262)"
         style="fill:none;stroke:#999999;stroke-width:0.557072;stroke-linecap:round;stroke-dasharray:none">
        <path
           style="baseline-shift:baseline;display:inline;overflow:visible;vector-effect:none;fill:#999999;stroke:none;enable-background:accumulate;stop-color:#000000;stop-opacity:1;opacity:1"
           d="m -165.0918,67.71875 a 0.27853599,0.27853599 0 0 0 -0.22461,0.322266 0.27853599,0.27853599 0 0 0 0.32227,0.224609 c 0.52045,-0.09312 1.04941,0.122629 1.26172,0.455078 0.21231,0.332449 0.13473,0.691317 -0.2461,0.957031 -0.38082,0.265715 -0.98916,0.296814 -1.41406,0.06445 a 0.27853599,0.27853599 0 0 0 -0.37695,0.111329 0.27853599,0.27853599 0 0 0 0.11133,0.376953 c 0.62426,0.341382 1.42163,0.306477 1.99804,-0.0957 0.57641,-0.402181 0.76299,-1.142052 0.39844,-1.712891 -0.36455,-0.570839 -1.10867,-0.832205 -1.83008,-0.703125 z"
           id="path36"
           transform="scale(-1,1)" />
        <path
           style="baseline-shift:baseline;display:inline;overflow:visible;vector-effect:none;fill:#999999;stroke:none;enable-background:accumulate;stop-color:#000000;stop-opacity:1;opacity:1"
           d="m 177.54297,-32.589844 a 0.27922201,0.27922201 0 0 0 -0.23633,0.316407 0.27922201,0.27922201 0 0 0 0.31641,0.236328 c 0.46891,-0.06843 0.98814,0.03027 1.2539,0.201172 0.13288,0.08545 0.18076,0.16784 0.19141,0.214843 0.0106,0.047 0.009,0.08526 -0.0645,0.166016 -0.147,0.16151 -0.59345,0.335021 -1.08399,0.328125 a 0.27922201,0.27922201 0 0 0 -0.2832,0.275391 0.27922201,0.27922201 0 0 0 0.27539,0.283203 c 0.6068,0.0085 1.17127,-0.146236 1.50391,-0.511719 0.16631,-0.182742 0.24985,-0.433789 0.19726,-0.666016 -0.0526,-0.232226 -0.21594,-0.41863 -0.43359,-0.558593 -0.43531,-0.279927 -1.04678,-0.371249 -1.63672,-0.285157 z"
           id="path37"
           transform="matrix(0.97658285,0.21514166,0.3107469,-0.95049269,0,0)" />
      </g>
    </g>
  </g>
</svg>
